Coordinates
version=1
nRows=8
nColumns=40
inDegrees=yes

Units are S.I. units (second, meters, Newtons, ...)
Angles are in degrees.

endheader
time	pelvis_tilt	pelvis_list	pelvis_rotation	pelvis_tx	pelvis_ty	pelvis_tz	hip_flexion_r	hip_adduction_r	hip_rotation_r	knee_angle_r	knee_angle_r_beta	ankle_angle_r	subtalar_angle_r	mtp_angle_r	hip_flexion_l	hip_adduction_l	hip_rotation_l	knee_angle_l	knee_angle_l_beta	ankle_angle_l	subtalar_angle_l	mtp_angle_l	lumbar_extension	lumbar_bending	lumbar_rotation	arm_flex_r	arm_add_r	arm_rot_r	elbow_flex_r	pro_sup_r	wrist_flex_r	wrist_dev_r	arm_flex_l	arm_add_l	arm_rot_l	elbow_flex_l	pro_sup_l	wrist_flex_l	wrist_dev_l
      5.99914286	     -2.65054671	     -5.00981257	     -2.56121544	      1.01509066	      0.92242338	      0.41310198	     25.22435360	     -6.65732226	     -8.66558543	     62.74357299	     62.74357299	      6.84774901	    -19.31355262	     16.07114963	     12.72312106	     -1.86508650	     -1.83466487	     28.54195673	     28.54195673	     20.54762385	    -17.25949805	      7.03534934	    -10.93008746	      4.53430389	      2.74416583	     10.19396796	    -13.53844087	     -3.11483134	     28.93933450	     46.47864066	      0.00000000	      0.00000000	     27.31994607	    -14.24069772	     -1.87254477	     48.83387279	     46.52589695	      0.00000000	      0.00000000
      6.01828571	     -2.69144615	     -5.15579644	     -3.05454512	      1.01447451	      0.92363124	      0.41323303	     25.94673817	     -6.08975677	     -8.49624385	     60.30798940	     60.30798940	      7.54719306	    -19.22030102	     15.57348670	     11.89614926	     -2.08205112	     -2.38173504	     27.71004147	     27.71004147	     20.52404600	    -17.01152936	      6.97836535	    -11.06916629	      4.87577531	      2.59078482	      7.34517406	    -13.81208443	     -2.94463556	     27.88045666	     46.48085879	      0.00000000	      0.00000000	     28.19840781	    -14.75780337	     -2.28400777	     50.52790270	     46.59759554	      0.00000000	      0.00000000
      6.03742857	     -2.85814053	     -5.29198749	     -3.55118838	      1.01378980	      0.92473680	      0.41363979	     26.55335066	     -5.54981029	     -8.49141885	     57.11349012	     57.11349012	      7.46737094	    -19.11041163	     12.96012944	     11.14495951	     -2.31583477	     -2.99334321	     26.73464189	     26.73464189	     20.17891468	    -16.76094232	      6.18192856	    -11.11252475	      5.19357953	      2.10436429	      4.39816622	    -14.06170816	     -2.67741064	     27.93532894	     46.41445669	      0.00000000	      0.00000000	     28.27066042	    -15.64733063	     -3.00295125	     53.81256095	     46.73126839	      0.00000000	      0.00000000
      6.05657143	     -3.18179251	     -5.43362058	     -4.03285906	      1.01291598	      0.92574862	      0.41439581	     27.22122271	     -4.89624522	     -8.46818978	     53.47144899	     53.47144899	      7.86118549	    -18.85168080	     12.78548253	     10.60339327	     -2.56847685	     -3.53936812	     25.83164555	     25.83164555	     20.13830297	    -16.41171416	      6.27393437	    -10.91499544	      5.52605407	      1.72777192	      1.78327643	    -14.16075548	     -2.66790986	     27.07913783	     46.42501777	      0.00000000	      0.00000000	     29.17743636	    -16.39551766	     -3.34548405	     54.73770803	     46.78121218	      0.00000000	      0.00000000
      6.07571429	     -3.36221127	     -5.49955428	     -4.60406545	      1.01215694	      0.92689123	      0.41544078	     27.34828676	     -4.36356366	     -8.62273179	     48.94773869	     48.94773869	      6.60831794	    -18.55634207	      8.23402709	      9.80285075	     -2.78944183	     -4.40370175	     24.74943358	     24.74943358	     19.74899307	    -15.86982680	      5.35721541	    -11.07701107	      5.69805324	      2.00184871	     -1.53292117	    -14.41902320	     -3.15027710	     27.70116317	     46.39424534	      0.00000000	      0.00000000	     29.49145255	    -16.74771632	     -3.93939565	     58.57679616	     46.90468374	      0.00000000	      0.00000000
      6.09485714	     -3.68001659	     -5.59341456	     -5.08909183	      1.01133545	      0.92780614	      0.41670503	     27.53252300	     -3.71680717	     -8.79441751	     44.25508325	     44.25508325	      6.41579856	    -17.67304953	      8.09274232	      9.20954409	     -2.99693430	     -4.97881838	     23.78184138	     23.78184138	     19.66241147	    -15.50601158	      5.41487516	    -10.86419545	      5.99581845	      1.57545637	     -3.81158215	    -14.39209375	     -3.22654549	     27.10242883	     46.40299503	      0.00000000	      0.00000000	     30.37552473	    -17.60739401	     -4.29693449	     59.40788300	     46.95341331	      0.00000000	      0.00000000
      6.11400000	     -3.84652362	     -5.65929302	     -5.61564861	      1.01068276	      0.92862506	      0.41838080	     26.99909782	     -3.13083375	     -9.30489951	     38.51168694	     38.51168694	      3.49377682	    -16.93065347	      0.34376581	      8.36172602	     -3.23617883	     -5.86484285	     22.66285170	     22.66285170	     19.16016495	    -14.88683912	      4.00083760	    -11.06101611	      6.09474975	      1.52680382	     -6.78357267	    -14.35109497	     -4.57746408	     28.51396655	     46.40304435	      0.00000000	      0.00000000	     30.49072197	    -18.25830028	     -5.02982980	     63.12175893	     47.09791202	      0.00000000	      0.00000000
      6.13314286	     -4.19975418	     -5.67402781	     -6.10513234	      1.00996239	      0.92900385	      0.42022290	     26.79231539	     -2.50731203	     -9.71053833	     33.24288103	     33.24288103	      2.97401637	    -14.57253203	      0.60329230	      7.81338568	     -3.37538650	     -6.44405287	     21.72596624	     21.72596624	     19.12890285	    -14.48980795	      4.01729928	    -10.82722940	      6.22388095	      1.37121486	     -8.80125148	    -14.24640215	     -4.68050335	     27.89748439	     46.41655173	      0.00000000	      0.00000000	     31.38443221	    -18.83363465	     -5.32408796	     63.96268261	     47.14178773	      0.00000000	      0.00000000
